<?xml version="1.0" encoding="UTF-8" standalone="no"?>
<!DOCTYPE svg PUBLIC "-//W3C//DTD SVG 1.1//EN" "http://www.w3.org/Graphics/SVG/1.1/DTD/svg11.dtd">
<svg width="100%" height="100%" viewBox="0 0 64 64" version="1.1" xmlns="http://www.w3.org/2000/svg" xmlns:xlink="http://www.w3.org/1999/xlink" xml:space="preserve" xmlns:serif="http://www.serif.com/" style="fill-rule:evenodd;clip-rule:evenodd;stroke-linejoin:round;stroke-miterlimit:2;">
    <g transform="matrix(2.66667,0,0,2.66667,0,0)">
        <g transform="matrix(0.035697,0,0,0.035697,-2.29937,-0.507299)">
            <path d="M709.453,275.859L511.094,247.031L422.422,67.266C420,62.344 416.016,58.359 411.094,55.937C398.75,49.844 383.75,54.922 377.578,67.266L288.906,247.031L90.547,275.859C85.078,276.641 80.078,279.219 76.25,283.125C66.678,292.964 66.889,308.934 76.719,318.516L220.234,458.437L186.328,656.016C186.085,657.421 185.963,658.844 185.963,660.271C185.963,673.964 197.231,685.232 210.924,685.232C214.985,685.232 218.986,684.24 222.578,682.344L400,589.063L577.422,682.344C582.266,684.922 587.891,685.781 593.281,684.844C606.875,682.5 616.016,669.609 613.672,656.016L579.766,458.438L723.281,318.516C727.188,314.688 729.766,309.688 730.547,304.219C732.656,290.547 723.125,277.891 709.453,275.859Z" style="fill-rule:nonzero;"/>
        </g>
    </g>
</svg>
